<svg width="726" height="747" viewBox="0 0 726 747" fill="none" xmlns="http://www.w3.org/2000/svg">
<path d="M357.327 282.627C532.713 282.627 674.94 258.908 674.94 229.637C674.94 210.064 611.085 192.987 516.46 183.861C507.673 143.143 491.085 63.2826 480.387 27.128C466.209 -19.888 415.127 4.24263 376.231 24.8102C337.34 45.3729 316.195 16.5133 275.476 10.4609C245.127 6.2317 233.101 38.4916 233.101 38.4916L211.872 182.372C109.627 191.413 39.7252 209.158 39.7252 229.637C39.7252 258.913 181.939 282.632 357.325 282.632L357.327 282.627Z" fill="black"/>
<path d="M554.193 565.16C554.193 565.16 608.011 499.983 616.969 470.957C627.25 437.785 489.016 417.717 489.016 417.717C489.016 417.717 479.813 486.712 386.271 525.52L386.265 525.525C371.219 531.181 354.625 531.181 339.577 525.525C246.119 486.796 235.009 418.052 235.009 418.052C235.009 418.052 98.676 437.62 108.957 470.958C117.916 499.985 171.733 565.161 171.733 565.161C76.864 565.161 0 634.901 0 720.974V746.766H725.853V720.974C725.853 634.896 648.651 565.161 554.2 565.161L554.193 565.16Z" fill="black"/>
<path d="M386.927 313.72C366.733 315.824 346.369 315.6 326.229 313.058C287.833 299.542 210.547 300.782 210.547 323.34C210.547 353.361 241.145 385.449 278.88 385.449C313.625 385.449 341.984 364.798 346.38 338.1H347.125C353.328 333.214 362.067 333.214 368.27 338.1C372.666 364.72 401.442 385.365 435.686 385.365C473.415 385.365 504.019 353.272 504.019 323.256C504.103 300.453 424.743 299.542 386.926 313.719L386.927 313.72Z" fill="black"/>
</svg>
